<?xml version="1.0" encoding="utf-8"?>
<!-- Generator: Adobe Illustrator 25.2.3, SVG Export Plug-In . SVG Version: 6.00 Build 0)  -->
<svg version="1.1" xmlns="http://www.w3.org/2000/svg" xmlns:xlink="http://www.w3.org/1999/xlink" x="0px" y="0px"
	 viewBox="0 0 600 600" style="enable-background:new 0 0 600 600;" xml:space="preserve">
<style type="text/css">
	.st0{fill:#F68D88;}
	.st1{fill:none;stroke:#ECBDBB;stroke-width:1.096442;stroke-linecap:round;stroke-linejoin:round;stroke-miterlimit:10;}
	.st2{fill:#9AB3DA;}
	.st3{fill:#404B7C;}
	.st4{fill:none;stroke:#D4E6FC;stroke-width:1.0433227;stroke-linecap:round;stroke-linejoin:round;stroke-miterlimit:10;}
	.st5{fill:none;stroke:#ECBDBB;stroke-width:1.0509137;stroke-linecap:round;stroke-linejoin:round;stroke-miterlimit:10;}
	.st6{fill:none;stroke:#DEEBFF;stroke-linecap:round;stroke-linejoin:round;stroke-miterlimit:10;}
	.st7{fill:#ECBDBB;}
	.st8{fill:none;stroke:#404B7C;stroke-width:1.0509137;stroke-linecap:round;stroke-linejoin:round;stroke-miterlimit:10;}
	.st9{fill:none;stroke:#ECBDBB;stroke-width:0.8524917;stroke-linecap:round;stroke-linejoin:round;stroke-miterlimit:10;}
	.st10{fill:none;stroke:#404B7C;stroke-width:1.0401611;stroke-linecap:round;stroke-linejoin:round;stroke-miterlimit:10;}
	.st11{fill:none;stroke:#F68D88;stroke-width:1.0401611;stroke-linecap:round;stroke-linejoin:round;stroke-miterlimit:10;}
	.st12{fill:#FFFFFF;}
	.st13{fill:none;stroke:#404B7C;stroke-width:1.0361407;stroke-linecap:round;stroke-linejoin:round;stroke-miterlimit:10;}
	.st14{fill:none;stroke:#9AB3DA;stroke-width:1.0509137;stroke-linecap:round;stroke-linejoin:round;stroke-miterlimit:10;}
	.st15{fill:none;stroke:#6B81BE;stroke-linecap:round;stroke-linejoin:round;stroke-miterlimit:10;}
	.st16{fill:#E9F3FF;}
	.st17{fill:none;stroke:#9AB3DA;stroke-width:0.9931163;stroke-linecap:round;stroke-linejoin:round;stroke-miterlimit:10;}
	.st18{fill:none;stroke:#404B7C;stroke-width:0.9931163;stroke-linecap:round;stroke-linejoin:round;stroke-miterlimit:10;}
	.st19{fill:none;stroke:#F68D88;stroke-width:0.9931163;stroke-linecap:round;stroke-linejoin:round;stroke-miterlimit:10;}
	.st20{fill:none;stroke:#9AB3DA;stroke-width:0.8524917;stroke-linecap:round;stroke-linejoin:round;stroke-miterlimit:10;}
	.st21{fill:#9AB3DA;stroke:#9AB3DA;stroke-width:0.25;stroke-miterlimit:10;}
</style>
<g id="PLANTS">
	<g>
		<g>
			<path class="st0" d="M517.1722412,518.887146c0,0,12.5999146-3.9006958,29.8330688-6.7953491
				c17.2331543-2.8946228,30.4423828-13.7498474,31.7146606-25.565979s-12.3120117-19.9795532-31.9732056-7.9638367
				C527.699646,490.2023621,517.1722412,518.887146,517.1722412,518.887146z"/>
			<path class="st1" d="M520.5551147,515.4893188c12.413269-12.2117004,28.8786011-25.6384277,47.7918091-34.2015381"/>
		</g>
		<g>
			<path class="st2" d="M527.5183105,481.6369019c-13.9400024,14.1700439-33.9099426,28.8000488-39.6299744,37.0700073
				c0,0-3.3999634-12.4199829-0.8800049-29.8699951c1.3000488-8.9199829,4.1400146-19.1599731,9.7900391-29.7199707
				c0.5799561-1.0900269,1.1699829-2.1300049,1.7600098-3.1400146c16.2399597-27.8099976,34.1399231-24.0900269,40.47995-15.75
				C545.6083374,448.8769531,541.4483032,467.4769287,527.5183105,481.6369019z"/>
			<path class="st3" d="M498.5583801,455.9769287l-0.7600098,23.6799927l-10.7900391,9.1799927
				c1.3000488-8.9199829,4.1400146-19.1599731,9.7900391-29.7199707
				C497.3783264,458.0269165,497.9683533,456.9869385,498.5583801,455.9769287z"/>
			<path class="st4" d="M528.7373657,446.1184082c0,0-23.1748657,15.8075867-38.9901733,63.7996521"/>
		</g>
		<g>
			<path class="st0" d="M82.8277664,518.887146c0,0-12.5998993-3.9006958-29.8330765-6.7953491
				c-17.2331772-2.8946228-30.4423523-13.7498474-31.7146416-25.565979s12.3119926-19.9795532,31.9732094-7.9638367
				C72.3003387,490.2023621,82.8277664,518.887146,82.8277664,518.887146z"/>
			<path class="st5" d="M79.4448929,515.4893188c-12.4132767-12.2117004-28.8786087-25.6384277-47.7917938-34.2015381"/>
		</g>
		<g>
			<path class="st2" d="M113.4152298,518.708252c0,0,7.772934-28.3864746-8.9132309-59.5924988
				s-35.6696396-27.5318298-42.2376518-18.8860779c-6.5680122,8.6457214-2.4129562,27.2445068,11.5222588,41.4096375
				S107.6991425,510.4353638,113.4152298,518.708252z"/>
			<path class="st6" d="M72.5658493,446.1184082c0,0,23.1748505,15.8075867,38.9901581,63.7996521"/>
		</g>
		<g>
			<path class="st2" d="M204.8437042,518.8908691c0,0,8.1662598-3.692749,19.5412903-7.0979309
				c11.3750305-3.4052124,19.365509-11.8382874,19.2266846-19.9124451s-9.9863434-12.4324036-22.229126-2.6726685
				C209.5222015,498.6626892,204.8437042,518.8908691,204.8437042,518.8908691z"/>
		</g>
	</g>
</g>
<g id="WOMAN_1_HAIR">
	<path class="st3" d="M447.2680664,122.1864395c0,0-2.3937073,20.281044-16.6471252,26.3031845
		c0,0,3.2505188,15.5370789,23.8306274,15.5564117s26.8241882-11.353241,26.8241882-11.353241
		s-11.0752869-6.7385101-8.5861816-23.2596436S450.3468933,109.8214645,447.2680664,122.1864395z"/>
</g>
<g id="WOMAN_1_RIGHT_ARM">
	<g>
		<g>
			<path class="st7" d="M363.0465698,85.6870117l-1.6295471-1.4532776c-1.0838623-0.9666138-1.89151-2.2037659-2.3403931-3.5849228
				l-5.7940063-17.8281364c-0.230011-0.7077446,0.1196594-1.4738159,0.8050537-1.76371l0,0
				c0.7191467-0.3041611,1.5494385,0.0230103,1.8677673,0.7359772l3.1988525,7.1643181l-2.3536377-9.8879776
				c-0.1758423-0.7386284,0.2689819-1.4828224,1.0027771-1.6777611h0.0000305
				c0.6889648-0.1830292,1.4054871,0.1807137,1.6643677,0.8449173l3.5475159,9.1019783l-1.3260498-10.6236382
				c-0.1071167-0.8582382,0.522583-1.6327248,1.3846436-1.7029686l0,0c0.7247009-0.0590515,1.3897095,0.4034996,1.5864563,1.1034813
				l2.8981018,10.310154l-1.1289673-9.3630714c-0.0874023-0.7247658,0.4171753-1.3877106,1.1390381-1.4965363l0,0
				c0.6990051-0.105381,1.3609619,0.3463249,1.5176697,1.0356483l3.7153625,16.3427124l0.9862061-5.1876984
				c0.1835632-0.9655609,1.1286316-1.588562,2.0883789-1.3767014v0.0000076
				c0.8046875,0.1776352,1.3750916,0.8945007,1.3674011,1.718544l-0.0774231,8.293251
				c-0.01828,1.9587631-0.7622681,3.841156-2.0881042,5.2831268l-2.1115112,2.2965088l2.3337402,6.5500946l-9.3716736,2.9161911
				L363.0465698,85.6870117z"/>
			<path class="st8" d="M372.4224243,73.9284973c0,0-5.5563354,1.5283279-5.2367554,8.2238159"/>
			<path class="st8" d="M359.0757446,71.3912125c0,0,5.0964355-2.5604172,9.9021301-3.5915375"/>
		</g>
		<path class="st0" d="M361.9263611,91.843689l14.3296204-4.0471725l25.1183167,53.1927567l34.0838623,17.3079071
			c0,0,11.9503174,5.9642944,5.4744263,18.7134094c-6.4758911,12.7490997-19.4421997,5.9088135-19.4421997,5.9088135
			l-32.9386902-22.189682c-3.9113159-2.6349335-6.8167725-6.5150146-8.2442932-11.0098572L361.9263611,91.843689z"/>
	</g>
</g>
<g id="WOMAN_1_RIGHT_LEG">
	<g>
		<polygon class="st7" points="409.9522095,470.5829468 409.5812683,488.8673096 417.7117004,487.1433105 419.2147522,469.4280396 
					"/>
		<g>
			<path class="st0" d="M420.7655029,480.4904175v36.3753052h-28.8249207
				c-0.5440674-3.9528809-0.5108032-7.6392822,0.7327881-10.748291c0,0,0.9771423-0.9882202,2.4650269-2.9091187
				c2.9868774-3.8640442,8.0167847-11.547699,11.1813354-22.7178955H420.7655029z"/>
			<path class="st2" d="M420.7655029,510.0036926v6.86203h-28.8249207
				c-0.5440674-3.9528809-0.5108032-7.6392822,0.7327881-10.748291c0,0,0.7217712-1.3990479,2.4650269-2.9091187
				c2.020874-1.7432861,5.4185791-3.6308899,10.6594238-3.6308899c9.7601013,0,11.0814209,10.4262695,11.0814209,10.4262695
				H420.7655029z"/>
			<path class="st1" d="M416.8790283,484.0150757c0,0-1.5830994,9.4985046-5.14505,14.3796997"/>
			<path class="st1" d="M408.5678101,484.0150757c0,0-1.5830688,9.4985046-5.1450195,14.3796997"/>
		</g>
		<g>
			<path class="st2" d="M446.668396,280.3322449l-6.6707153,52.1068726l-17.932373,140.1238098l-17.9536133,0.3106384
				l-6.6809692-195.8838806c-0.2250061-6.5969238,1.4038696-13.1248169,4.7017212-18.8426819l3.1696472-5.4956512
				c4.616394-8.0040283,13.8495483-12.140152,22.8953552-10.2563019h0.0000305
				c9.294342,1.9356079,16.2015381,9.7646027,16.9638367,19.2277222L446.668396,280.3322449z"/>
			<polygon class="st3" points="446.668396,280.3322449 439.9976807,332.4391174 430.7795715,298.8918762 424.1201172,273.4888611 
							"/>
			<path class="st4" d="M429.6246948,294.6276855l4.562561,16.8464355c0.6611023,2.440979,2.6691284,4.2827759,5.157959,4.7310181
				l2.6691895,0.4807434"/>
			<line class="st4" x1="432.3713684" y1="323.2632751" x2="418.8902893" y2="466.8614807"/>
			
				<ellipse transform="matrix(0.998453 -0.0556031 0.0556031 0.998453 -20.9959373 23.5681629)" class="st4" cx="413.0383301" cy="389.0957031" rx="7.8459783" ry="12.2997808"/>
			<line class="st4" x1="406.1969604" y1="468.4251099" x2="421.3145752" y2="468.2595825"/>
		</g>
	</g>
</g>
<g id="WOMAN_1_LEFT_LEG">
	<g>
		<polygon class="st7" points="489.5237732,470.7021484 491.6408997,488.8673096 483.3829041,487.9284363 480.1932373,470.4379883 
					"/>
		<g>
			<path class="st0" d="M480.456665,480.4904175v36.3753052h28.8249207
				c0.5440674-3.9528809,0.5108032-7.6392822-0.7327881-10.748291c0,0-0.9771423-0.9882202-2.4650269-2.9091187
				c-2.9868774-3.8640442-8.0167847-11.547699-11.1813354-22.7178955H480.456665z"/>
			<path class="st2" d="M480.456665,510.0036926v6.86203h28.8249207c0.5440674-3.9528809,0.5108032-7.6392822-0.7327881-10.748291
				c0,0-0.7217712-1.3990479-2.4650269-2.9091187c-2.020874-1.7432861-5.4185791-3.6308899-10.6594238-3.6308899
				c-9.7601013,0-11.0814209,10.4262695-11.0814209,10.4262695H480.456665z"/>
			<path class="st1" d="M484.3431396,484.0150757c0,0,1.5830994,9.4985046,5.14505,14.3796997"/>
			<path class="st1" d="M492.6543579,484.0150757c0,0,1.5830688,9.4985046,5.1450195,14.3796997"/>
		</g>
		<g>
			<path class="st2" d="M433.1672668,277.6849365l13.2427673,58.3782349l31.2453918,137.7678528l17.9010925-1.407074
				l-13.8673706-199.039032l-5.9829712-12.8732605c-4.2392273-9.1213226-14.2164917-14.105835-24.0556946-12.0179291h-0.0000305
				c-8.8583374,1.8797607-15.6016846,9.0887909-16.8865662,18.0527496L433.1672668,277.6849365z"/>
			<line class="st4" x1="453.1242371" y1="326.2003174" x2="480.2708435" y2="467.8521423"/>
			
				<ellipse transform="matrix(0.9991957 -0.0400987 0.0400987 0.9991957 -15.2488422 19.5073147)" class="st4" cx="478.6620178" cy="389.8830872" rx="7.8459783" ry="12.2997808"/>
			<line class="st4" x1="493.055542" y1="468.1952209" x2="477.991333" y2="469.4755859"/>
		</g>
	</g>
</g>
<g id="WOMAN_1_BODY">
	<g>
		<path class="st0" d="M449.3123169,157.9067535c-14.0502625,0.3825684-22.4577637-3.3026733-22.4577637-3.3026733
			s-16.8423157,34.9752197-16.2527466,39.3292694c0.5895691,4.3540344,4.4194031,24.4942627,4.4194031,24.4942627
			l-21.420166,51.6280823c0,0,14.6307068,13.6678467,38.3766174,14.0859375
			c23.7459106,0.4180603,55.4189453-11.6231995,55.4189453-11.6231995s-16.184967-44.3416443-16.3782043-49.2889709
			s12.2980652-31.0565186,12.9021301-42.137558S449.3123169,157.9067535,449.3123169,157.9067535z"/>
		<path class="st9" d="M425.8694763,156.667511c-1.7875061,3.7631836-5.6968384,12.0803528-9.1140137,19.9485016"/>
		<path class="st1" d="M400.3321228,266.8958435c0,0,14.4376831,8.522644,30.6629944,9.9230957
			c16.2253113,1.4004211,50.2720642-9.6492004,50.2720642-9.6492004"/>
		<path class="st2" d="M451.4903564,156.5235901c-12.2983704-2.4161835-15.5749512,8.4285126-15.5811462,15.0246887
			c0,0,4.3557129-2.3705292,12.0076599-2.7591095c0,0,4.0877991,1.9826965,8.1718445,7.9230957
			C456.0887146,176.712265,469.0329895,159.9700928,451.4903564,156.5235901z"/>
	</g>
</g>
<g id="WOMAN_1_NECK">
	<g>
		<polygon class="st7" points="459.1561584,141.7606964 458.5635986,146.0683441 456.3613281,161.9332886 448.7069702,166.1565552 
			445.0251465,161.2675629 447.7437439,151.3546143 449.2590027,145.8375244 		"/>
		<path class="st3" d="M459.1561584,141.7606964l-0.5925598,4.3076477
			c-3.7237549,4.3490906-8.6656494,5.1549835-10.8198547,5.2862701l1.5152588-5.5170898L459.1561584,141.7606964z"/>
	</g>
</g>
<g id="WOMAN_1_HEAD">
	<g>
		<path class="st7" d="M444.0766296,121.9608078c0,0-4.1767273,7.7910233-3.7791748,17.5450363
			c0.397583,9.7540283,8.1924133,10.2932892,15.7825012,6.481308c7.5901184-3.8119812,11.684906-15.3156891,11.684906-15.3156891
			s2.9074097-9.8900681-3.9020081-13.8887405C457.0534668,112.78405,448.36026,114.5669098,444.0766296,121.9608078z"/>
		<path class="st3" d="M463.0977783,119.9043655c0,0-9.8433228,8.8903122-23.0741272,4.3430862
			c-5.2144165-10.5818024,10.8876648-25.4163208,24.0250854-10.7908478
			c19.0401611,5.0036545,11.9969177,24.4887848,1.1779175,22.8776703
			C465.2266541,136.3342743,460.3711853,131.3182831,463.0977783,119.9043655z"/>
		<g>
			<g>
				<path class="st7" d="M460.1842651,140.7873535l3.4503174-5.7226715c0,0,3.7846069-3.9125214,7.7489624-1.8017273
					C475.3478699,135.373764,472.0244751,146.3149414,460.1842651,140.7873535z"/>
				<path class="st10" d="M470.3589478,135.7145996c0,0-4.4152527-0.1548157-7.8117981,2.8970184"/>
				<path class="st10" d="M467.2764587,139.8572083c0,0,0.2722168-1.7120819-0.1607056-3.68573"/>
			</g>
			<path class="st11" d="M463.8384399,140.2242584c-1.73349,0.1137543-2.9826965,2.5841064-2.7901917,5.5177002
				c0.1924744,2.9335938,1.7538147,5.2195282,3.4873047,5.1057739c1.7334595-0.1137543,2.9826965-2.5841064,2.7901917-5.5177002
				c-0.0742798-1.1319733-0.352356-2.167511-0.7655029-3.0059509"/>
		</g>
	</g>
</g>
<g id="WOMAN_1_FACE">
	<g>
		<path class="st3" d="M459.6772766,127.9667587c0,0-0.8934631-4.2359695-4.1134949-3.5345306
			c0,0,0.1421204-0.8735504-0.5991516-1.0841827s-1.4155884,2.1045532-1.4155884,2.1045532
			S457.0455933,126.0502625,459.6772766,127.9667587z"/>
		<path class="st3" d="M443.1847839,125.637001c0,0,1.2134399-3.7686615,3.1505432-2.1393204
			c0,0,0.2381592-0.6920471,0.7381592-0.6485672c0.8647766,0.0752029,0.4695435,2.3169861,0.4695435,2.3169861
			S445.1477966,124.5967865,443.1847839,125.637001z"/>
		<g>
			
				<ellipse transform="matrix(0.218416 -0.9758558 0.9758558 0.218416 225.8350525 547.7077637)" class="st3" cx="454.8409729" cy="132.8694153" rx="2.0095496" ry="1.625371"/>
			<circle class="st12" cx="454.6470337" cy="132.0954132" r="0.4322009"/>
		</g>
		<g>
			
				<ellipse transform="matrix(0.218416 -0.9758558 0.9758558 0.218416 220.5729523 536.9551392)" class="st3" cx="445.4972534" cy="130.7780914" rx="2.0095496" ry="1.625371"/>
			<circle class="st12" cx="445.3032837" cy="130.0041046" r="0.4322009"/>
		</g>
		<path class="st13" d="M449.7179871,131.2939758l-0.8875427,3.8290405c0,0-2.7499695-0.5924988-2.4867249,1.1086578
			c0.2585754,1.671051,2.5170898,1.6157532,2.5170898,1.6157532"/>
		<path class="st12" d="M445.9317322,142.5320587c0,0,4.1081848,1.2824707,8.3077393-1.483078
			c-3.5709534-0.0561371-6.7539673-0.4629211-8.7976379-1.8994293L445.9317322,142.5320587z"/>
	</g>
</g>
<g id="WOMAN_1_LEFT_ARM">
	<g>
		<path class="st0" d="M481.2757568,175.1943054c6.4197083,4.6758575,30.1226807,57.9622192,30.1226807,57.9622192
			s2.9969482,11.9053345-9.4801025,14.8650055c0,0-14.7825012,2.0965881-13.2110291-9.6094208l2.4464722-3.577713
			c0,0-17.8400574-23.8701935-25.6490173-35.121048C457.6958008,188.4624786,469.9298401,166.9304047,481.2757568,175.1943054z"/>
		<path class="st9" d="M471.1943665,207.7187805c-2.1504517-2.9801941-4.1221313-5.7470398-5.6896057-8.0054321
			c-7.1515503-10.3036957,2.5072632-29.2303925,12.8990784-25.9965515"/>
	</g>
</g>
<g id="HEART_2">
	<g>
		<path class="st2" d="M69.8299866,181.4091797c0,0,0.0315399,0.0671234,0.0884933,0.1764374
			c0.3251114,0.5700684,0.5770187,1.164978,0.7579651,1.77388c1.254425,3.5232697,2.7573547,11.4042511-4.2158127,19.8075256
			c-10.6855469,2.2143402-16.9414673-2.8088074-19.4715919-5.5650482c-0.4529076-0.4453888-0.8602219-0.9468689-1.2112541-1.5013275
			c-0.0698814-0.1015472-0.1079025-0.1647797-0.1079025-0.1647797c-2.1763763-3.6196442-1.2318344-8.1779633,2.1030655-10.183136
			s7.79739-0.6979218,9.9737663,2.9217224c-2.1763763-3.6196442-1.2318382-8.1779633,2.1030655-10.183136
			C63.184639,176.4861755,67.6536102,177.7895355,69.8299866,181.4091797z"/>
	</g>
</g>
<g id="HEART_1">
	<g>
		<path class="st2" d="M556.9138794,354.4417114c0,0-0.0262451,0.0438232-0.0667725,0.1184082
			c-0.2006836,0.4049988-0.4436646,0.77771-0.7219849,1.1152649c-1.5304565,2.0717163-5.4550781,5.9613037-12.9378662,5.209198
			c-5.3746948-5.2533264-4.9108276-10.7593384-4.3091431-13.2648926c0.0802612-0.4300537,0.210144-0.8556213,0.3919067-1.2694092
			c0.0311279-0.0789795,0.0526123-0.1250305,0.0526123-0.1250305c1.2310181-2.635498,4.1985474-3.848938,6.626709-2.7147827
			c2.4281616,1.1341248,3.397583,4.1864319,2.1665649,6.8219299c1.2310181-2.635498,4.1985474-3.848938,6.626709-2.7148132
			S558.1448364,351.8062134,556.9138794,354.4417114z"/>
	</g>
</g>
<g id="MAN_RIGHT_ARM">
	<g>
		<g>
			<path class="st7" d="M224.6863251,170.5275574l-1.5658569-1.8283844
				c-1.0414886-1.2161102-1.7412872-2.6870117-2.0278015-4.2622986l-3.6984863-20.3339539
				c-0.1468201-0.8072205,0.3483276-1.5925903,1.1399689-1.808136h0.0000153
				c0.8305969-0.2261505,1.6894684,0.253891,1.9320221,1.0798492l2.4373322,8.2998047l-1.1118164-11.1508331
				c-0.0830536-0.832962,0.5128021-1.5803833,1.3433228-1.6850433l0,0c0.7797852-0.0982513,1.5089264,0.4049377,1.6937256,1.1688538
				l2.5322418,10.4683075l0.1195374-11.802887c0.0096588-0.9535065,0.8119965-1.7067261,1.7642059-1.6562195l0,0
				c0.8005219,0.0424805,1.4588165,0.6460266,1.5704498,1.4398499l1.6443176,11.6924591l0.1487579-10.3965302
				c0.0115051-0.8047638,0.660675-1.4545898,1.4654236-1.4669189l0,0c0.7792816-0.0119476,1.4358215,0.5792999,1.5052795,1.3555756
				l1.6466675,18.404129l1.8433685-5.5223541c0.3430939-1.0278473,1.4676056-1.5690155,2.4849243-1.1958466h0.0000153
				c0.8529663,0.3128815,1.3703308,1.1803131,1.2402802,2.0794983l-1.3088989,9.0495758
				c-0.3091431,2.1374054-1.3999176,4.0842285-3.0613403,5.4639587l-2.6460419,2.1973877l1.58284,7.5010071l-10.6697845,1.8026428
				L224.6863251,170.5275574z"/>
			<path class="st8" d="M236.6660309,159.064621c0,0-6.2963409,0.8495483-6.9355927,8.2120514"/>
			<path class="st8" d="M222.4583588,154.322113c0,0,5.9462128-2.0450745,11.3490295-2.462204"/>
		</g>
		<g>
			<path class="st2" d="M252.4698029,166.8785248l-17.7420502,42.7948761l4.9937897,15.6951447
				c2.513382,5.983551,10.7607727,6.328949,13.6002045,0.4930725c7.7457886-15.9199371,24.5133057-47.6850739,24.5133057-47.6850739
				C281.6145935,169.1476746,263.9674988,141.4535675,252.4698029,166.8785248z"/>
			<g>
				<polygon class="st12" points="222.6966858,187.3506622 219.7925568,178.7632294 240.0941162,173.0792236 
					242.4132233,181.7236023 				"/>
				<polygon class="st14" points="222.6966858,187.3506622 219.7925568,178.7632294 240.0941162,173.0792236 
					242.4132233,181.7236023 				"/>
			</g>
			<path class="st2" d="M242.8637695,178.1765442l-22.581604,7.5073242c0,0,5.3504944,22.0085144,9.6312714,38.5006714
				c2.2211304,8.5570984,12.4305267,12.0987396,19.4732971,6.7548828l0.0000153-0.0000153
				c4.0404968-3.0658112,5.8031921-8.2854462,4.4486389-13.1731873L242.8637695,178.1765442z"/>
			<line class="st8" x1="253.8353882" y1="217.7662201" x2="245.9198608" y2="189.2040558"/>
			<circle class="st3" cx="226.3328857" cy="190.2979431" r="2.284183"/>
		</g>
	</g>
</g>
<g id="MAN_LEFT_ARM">
	<g>
		<g>
			<path class="st7" d="M370.5982666,183.1552734l1.7648315-1.5080261c1.1738281-1.0030365,2.0601807-2.2998505,2.5683899-3.7578125
				l6.5601807-18.8195496c0.260437-0.7471008-0.0939941-1.5692596-0.8160095-1.8928375l0,0
				c-0.7575378-0.3394928-1.6474304-0.010437-2.0018616,0.7402191l-3.5615234,7.5431213l2.7244873-10.4572144
				c0.2034912-0.7811432-0.252533-1.5821838-1.0281372-1.8059235l0,0c-0.7282104-0.2100677-1.4980164,0.1604309-1.788147,0.8605957
				l-3.975769,9.5948639l1.6487732-11.2623138c0.1332092-0.9098358-0.5187073-1.7472382-1.4334106-1.8413086v-0.0000153
				c-0.7689819-0.0790863-1.4862671,0.3975983-1.7111511,1.137207l-3.3126831,10.893692l1.4108887-9.9268646
				c0.1092224-0.7684021-0.4121704-1.484436-1.177002-1.6163635h-0.0000305
				c-0.7406006-0.1277618-1.4543762,0.3374634-1.6364746,1.0666351l-4.3172607,17.2874756l-0.931427-5.536377
				c-0.1733704-1.0304565-1.1638794-1.7139435-2.1887817-1.5103607l0,0c-0.8593445,0.1706848-1.481781,0.9198151-1.492157,1.7958984
				l-0.1044922,8.8168793c-0.0246887,2.0824432,0.7237244,4.1000519,2.1004944,5.6626282l2.192688,2.4885864l-2.6281433,6.9097137
				l9.895752,3.310791L370.5982666,183.1552734z"/>
			<path class="st8" d="M360.8972473,170.4456329c0,0,5.871582,1.749649,5.3810425,8.8592834"/>
			<path class="st8" d="M375.1409607,168.0492859c0,0-5.3594666-2.8363342-10.4443665-4.0405731"/>
		</g>
		<g>
			<path class="st2" d="M343.3552246,173.7366943l10.9005127,45.0262146l-7.3641663,14.7324219
				c-3.409729,5.5221252-11.611084,4.5861206-13.5124817-1.6190948
				c-5.1868896-16.9274292-16.8327637-50.9060516-16.8327637-50.9060516
				C314.2106323,171.4649353,335.9336853,146.8378601,343.3552246,173.7366943z"/>
			<g>
				<polygon class="st12" points="369.5986938,198.5726929 373.797699,190.5386047 354.6213074,181.7791595 350.9914856,189.960083 
									"/>
				<polygon class="st14" points="369.5986938,198.5726929 373.797699,190.5386047 354.6213074,181.7791595 350.9914856,189.960083 
									"/>
			</g>
			<path class="st2" d="M351.0956726,186.3860474l21.1465454,10.9138794c0,0-8.6943054,20.9143829-15.4775085,36.5446167
				c-3.5195312,8.1098938-14.1542358,10.02771-20.2844543,3.6576538l-0.0000305-0.0000153
				c-3.5169678-3.6545715-4.4500427-9.0842133-2.3548889-13.7032166L351.0956726,186.3860474z"/>
			<line class="st8" x1="337.3041077" y1="216.7910156" x2="346.3686829" y2="196.807251"/>
			<circle class="st3" cx="365.5499268" cy="200.9212952" r="2.284183"/>
		</g>
	</g>
</g>
<g id="MAN_RIGHT_LEG">
	<g>
		<g>
			<g>
				<path class="st7" d="M301.7588501,476.0204468c0,0,0.0995789,2.3659668,0.2203979,5.33255
					c0.227417,4.9127197,0.518158,11.4729919,0.5549011,11.6410522c0.0574341,0.2625122-4.7826843,2.883728-4.7826843,2.883728
					l-5.8779907-0.9148254l-1.2427063-8.4977112l-1.1469116-7.8585205L301.7588501,476.0204468z"/>
				<g>
					<path class="st3" d="M277.0488281,518.887146h31.2168884c0,0,0.1636047-2.9151611-0.0307312-6.9859924
						c-0.2659302-5.983551-1.2989502-14.4833679-4.7152405-19.8941345c0,0-7.875824,2.3320923-14.329895,0.3580322
						c0,0-4.715271,9.0111694-9.2463989,15.4754333c-0.0307312,0.051178-0.0715942,0.1022949-0.1023254,0.1534424
						C277.5909424,511.1851501,277.0385742,515.4196777,277.0488281,518.887146z"/>
					<path class="st14" d="M289.5350952,508.40271c0,0,4.3240967-5.9021606,7.5939026-12.8849487"/>
					<path class="st0" d="M272.5585632,518.887146h36.6992493v-6.9859924h-12.8058167
						c0,0,0.0715332-11.0261841-11.1386719-11.0261841C274.1030579,500.8749695,272.5585632,510.3669128,272.5585632,518.887146z"/>
				</g>
				<path class="st3" d="M301.7588501,476.0204468c0,0,0.0995789,2.3659668,0.2203979,5.33255
					c-2.6355286,1.1816406-7.3995972,3.3461609-11.3484802,5.1122437l-1.1469116-7.8585205L301.7588501,476.0204468z"/>
			</g>
		</g>
		<g>
			<path class="st0" d="M248.6502991,280.1999207c0,0,15.7688599,102.1164246,18.6387634,116.4449158
				c2.859436,14.3392639,18.6282654,84.5632019,18.6282654,84.5632019s9.0506592,0.8061829,20.7781067-1.0749207
				c0-1.0748901-5.9120178-76.5013733-6.2668152-83.305481c-0.2041626-3.8697815,0.5805054-29.8179932,1.2898254-51.8106079
				c0.3655701-11.1146545,0.7095032-21.218689,0.8922729-26.9480591c0.0967102-2.8699341,0.1503601-4.6436768,0.1503601-4.9016418
				c0-1.7950134,2.8379211-44.5012207-12.5440979-60.9150543
				C274.8349609,235.8383789,247.2205963,250.1024628,248.6502991,280.1999207z"/>
			
				<ellipse transform="matrix(0.993376 -0.1149096 0.1149096 0.993376 -44.4013329 34.9657021)" class="st5" cx="281.0802307" cy="402.6052551" rx="8.8008232" ry="13.5937357"/>
			<path class="st5" d="M292.0084839,318.7622986c0,0,2.1498413,76.8112793,2.1498413,84.3356323
				c0,7.5243835,6.091156,72.7355652,6.091156,72.7355652"/>
			<path class="st3" d="M291.5141602,297.6072998c0,0-2.8969421,22.7905273,10.2042847,47.409729
				c0.3655701-11.1146545,0.7095032-21.218689,0.8922729-26.9480591l-4.2458496-1.322113
				C298.3648682,316.7468567,293.3442383,304.6276855,291.5141602,297.6072998z"/>
			<path class="st5" d="M288.617218,281.7839661c0,0,3.1807251,24.7558594,9.7476501,34.9628906l4.2458496,1.322113
				c0,0-5.5317688-17.2156982-6.4656067-36.2850037"/>
		</g>
	</g>
</g>
<g id="MAN_LEFT_LEG">
	<g>
		<g>
			<g>
				<path class="st7" d="M348.1351013,476.0204468c0,0,0.0995789,2.3659668,0.2203979,5.33255
					c0.227417,4.9127197,0.518158,11.4729919,0.5549011,11.6410522c0.0574341,0.2625122-4.7826843,2.883728-4.7826843,2.883728
					l-5.8779907-0.9148254l-1.2427063-8.4977112l-1.1469116-7.8585205L348.1351013,476.0204468z"/>
				<g>
					<path class="st3" d="M362.7702942,518.887146h-31.2168884c0,0-0.1636353-2.9151611,0.0307312-6.9859924
						c0.2659302-5.983551,1.2989502-14.4833679,4.7152405-19.8941345c0,0,7.875824,2.3320923,14.329895,0.3580322
						c0,0,4.7152405,9.0111694,9.2463989,15.4754333c0.0307007,0.051178,0.0715942,0.1022949,0.1023254,0.1534424
						C362.2281799,511.1851501,362.7805481,515.4196777,362.7702942,518.887146z"/>
					<path class="st14" d="M350.2839966,508.40271c0,0-4.3240967-5.9021606-7.5938721-12.8849487"/>
					<path class="st0" d="M367.2605591,518.887146h-36.6992798v-6.9859924h12.8058472
						c0,0-0.0715637-11.0261841,11.1386719-11.0261841C365.7160645,500.8749695,367.2605591,510.3669128,367.2605591,518.887146z"/>
				</g>
				<path class="st3" d="M348.1351013,476.0204468c0,0,0.0995789,2.3659668,0.2203979,5.33255
					c-2.6355286,1.1816406-7.3995667,3.3461609-11.3484802,5.1122437l-1.1469116-7.8585205L348.1351013,476.0204468z"/>
			</g>
		</g>
		<g>
			<path class="st0" d="M295.0265503,280.1999207c0,0,22.0356445,102.1164246,24.9055786,116.4449158
				c2.859436,14.3392639,12.3614502,84.5632019,12.3614502,84.5632019s9.0506592,0.8061829,20.7781067-1.0749207
				c0-1.0748901,0.3547974-76.5013733,0-83.305481c-0.2041626-3.8697815-1.0964355-128.1615295-16.4784546-144.5753632
				C321.2112122,235.8383789,293.5968323,250.1024628,295.0265503,280.1999207z"/>
			
				<ellipse transform="matrix(0.9995722 -0.0292482 0.0292482 0.9995722 -11.6269732 10.1577768)" class="st5" cx="341.4074707" cy="402.5210266" rx="8.8008232" ry="13.5937357"/>
			<path class="st5" d="M309.8730164,320.5011292c0,0,16.451355,75.4994202,17.2430115,82.9820251
				c0.791626,7.482605,7.4779358,72.3503418,7.4779358,72.3503418"/>
		</g>
	</g>
</g>
<g id="MAN_BODY">
	<g>
		<g>
			<g>
				<path class="st2" d="M333.2133789,236.3973389c-1.8811035-15.0487061,8.5992432-44.0712891,3.2247314-73.6312866
					c0,0-15.8549194-11.5552979-31.4411011-13.7051392c-15.5862427-2.1497803-44.5767212,8.2847443-44.5767212,8.2847443
					s-1.913147,72.8709564-2.4506226,78.2455292c-0.5374146,5.3745117-15.5861816,45.9523926-15.5861816,45.9523926
					s14.0322266,10.4549561,34.4223022,16.1239624l16.8151245-19.6174316c0,0,10.9081421,17.7837524,13.9777832,22.9588013
					c13.3781128-0.9572144,27.612793-5.3655396,41.4696045-15.703186
					C349.0682983,285.3057251,335.0944214,251.446106,333.2133789,236.3973389z"/>
				<path class="st8" d="M336.8156433,165.0058441c2.5501099,16.3987427,0.4288635,32.5269318-1.528717,46.0821686
					c0,0-2.223938,13.9915466-2.2359009,18.642868"/>
				<path class="st8" d="M258.4598389,228.9572906c1.0093994-14.7978821,0.7573242-52.1490631,1.6037598-65.8338928"/>
			</g>
			<polygon class="st3" points="330.5260925,259.2391968 332.5863342,266.4948425 312.0734863,271.8693848 309.923645,264.5241699 
							"/>
			<polygon class="st3" points="262.758606,257.2557678 260.2624817,264.37323 280.4119568,270.9809265 283.0029297,263.77948 			
				"/>
			<path class="st8" d="M294.7853394,276.8408508l5.3745422-5.5761108c0,0-3.7621765-20.8935547-4.0309143-55.2906647"/>
		</g>
		<path class="st3" d="M303.6533508,145.7018585c0,0,6.8525391,1.3436432,18.6765442,7.7930908
			c0,0,5.867218,7.5691528,9.0919495,18.8557129l-13.4363708,2.6872711l6.091156,11.8240051l-27.9476624,27.7685089
			l-20.7815857-29.7391815l7.5243835-13.7946625l-13.078064-2.5081329c0,0,6.2702942-13.302002,9.6741638-16.7058868
			C282.8717651,148.478714,298.2788086,144.9852448,303.6533508,145.7018585z"/>
		<g>
			<path class="st12" d="M303.9220886,149.2624969c3.9251404,0.7850494,11.9065247,4.3271332,15.9283752,6.1815796
				c-2.1617432,7.977066-11.659729,38.8265228-23.3632812,53.6326447c0,0-9.171875-37.5090027-13.1068726-56.2978668
				C288.5529175,151.3430328,299.8347473,148.4450378,303.9220886,149.2624969z"/>
			<g>
				<path class="st3" d="M291.9734192,190.3457031c0.8326721-5.5779266,3.2345581-20.3549194,6.6636047-30.3565521
					l4.008606-0.8509216l2.7993164,1.7467346c0,0,2.0948486,13.3302155,1.7696838,29.5809326
					c-3.2095032,7.0213623-6.8455811,13.700058-10.7274475,18.6108246
					C296.4871826,209.0767212,294.4966736,200.9359741,291.9734192,190.3457031z"/>
				<path class="st14" d="M304.7282715,167.8718719c0,0-4.098114-0.4030914-6.5166626-0.2687225"/>
			</g>
		</g>
		<g>
			<path class="st12" d="M301.7250366,160.7058105c0,0,5.2849731,2.5081177,10.7490845,7.8826599
				c0,0,1.2540588-19.16922-8.8680115-21.0503082s-12.8988953,18.3630371-12.8988953,18.3630371
				S293.3049011,163.2139282,301.7250366,160.7058105z"/>
			<path class="st14" d="M296.4589844,150.5493011c-4.3694153,5.2738953-5.75177,15.3518982-5.75177,15.3518982
				s2.5976868-2.6872711,11.0178223-5.1953888c0,0,5.2849731,2.5081177,10.7490845,7.8826599
				c0,0,0.6454468-9.8658752-2.7271423-16.1364899"/>
		</g>
	</g>
</g>
<g id="MAN_NECK">
	<g>
		<path class="st7" d="M299.9126892,155.1771851c0,0,2.891449,2.0100861,6.847168,0.5374603l1.3650208-9.7064667
			l1.5050354-10.6523285l-9.566864-8.212326l-0.0858154-0.0752487v0.6664429l-0.0107422,5.4820786L299.9126892,155.1771851z"/>
		<path class="st3" d="M299.9664917,133.2167969c0.4406128,4.2673492,2.160553,10.3191071,8.1583862,12.7913818
			l1.5050354-10.6523285l-9.566864-8.212326c-0.0429077,0.2257614-0.0644226,0.4192352-0.0858154,0.5911942
			c-0.0645447,0.5374527-0.0645447,0.8599167-0.0645447,0.8814316
			C299.9126892,128.6161499,299.6977539,130.5724945,299.9664917,133.2167969z"/>
	</g>
</g>
<g id="MAN_HEAD">
	<g>
		<g>
			<path class="st7" d="M317.1231079,124.5236053c0,0,2.2617493-3.2917786,4.9118652-1.6405258
				s0.4819031,8.6994553-5.3512878,9.449028L317.1231079,124.5236053z"/>
			<path class="st8" d="M320.9666443,124.9683914c0,0-1.9012451,0.7990799-3.2897339,4.037178"/>
		</g>
		<path class="st7" d="M307.9728699,109.8589172c8.5315247-1.1159134,11.2749329,11.1969833,10.7566833,20.3782806
			s-7.8200989,15.4753418-15.8944702,8.895874C294.7607422,132.5536194,290.5281677,112.1406631,307.9728699,109.8589172z"/>
		<path class="st3" d="M299.9839172,141.0958557l0.0378723-5.5795593l-0.2554321-5.3525696l-1.8179626-6.1892395
			c0,0,6.8247986-0.1616669,3.7147522-7.8552704c0,0,9.2133484,8.9095306,17.550293,7.5321884
			c8.3395691-1.3667831,13.6103821-11.7029266,11.8796997-14.4309845c-1.6464233-2.6146164-5.299408,0.7569199-5.5897217,1.030632
			c0.3593445-0.6268234,7.3591919-12.6581116,1.5369873-18.7818527c-5.9720764-6.2768631-19.5795898,7.1051941-27.44104,15.2181473
			c-1.2038574,1.23983-2.383728,2.3953629-3.5134583,3.48246c0.5747986-2.0131226,1.4309082-5.2383881,2.0471191-8.5719833
			c1.0068359-5.5025177-6.9335022-3.115036-4.9769592,11.2486343c0,0-6.4690552-7.1500931-9.6619263-4.8112259
			c-2.6940918,1.9573059,2.6989136,5.81353,7.4736328,7.0012207c-3.6295471,3.556076-6.0325317,6.5050278-5.9371033,9.9082031
			C285.1912842,130.6386108,299.9839172,141.0958557,299.9839172,141.0958557z"/>
		<g>
			<path class="st7" d="M297.7886353,127.2749481c0,0-1.675415-3.5499802-5.7519836-2.3036652
				c-4.0765686,1.2463074-0.9920959,10.2789459,7.2817078,7.8963318L297.7886353,127.2749481z"/>
			<path class="st8" d="M297.4325256,130.5364838c0,0-1.6096191-3.4730072-5.1463013-3.4340897"/>
			<path class="st8" d="M294.1265259,130.564743c0,0-0.0880432-1.4144287,0.9606628-2.656929"/>
		</g>
	</g>
</g>
<g id="MAN_FACE">
	<g>
		<path class="st3" d="M302.9274292,123.6999054c0,0,1.4114075-3.4892883,4.0604553-2.397316
			c0,0,0.0116882-0.7694016,0.6783142-0.836525c0.6666565-0.0671158,0.8903503,2.0174561,0.8903503,2.0174561
			S305.4725342,122.4612885,302.9274292,123.6999054z"/>
		<path class="st3" d="M318.1268005,122.2205505c0,0-1.3804321-3.1533279-2.9129944-1.5739136
			c0,0-0.2667542-0.577713-0.6954346-0.4962082c-0.7414246,0.1409683-0.2027588,2.0454025-0.2027588,2.0454025
			S316.3374939,121.493103,318.1268005,122.2205505z"/>
		<g>
			
				<ellipse transform="matrix(0.9990458 -0.0436733 0.0436733 0.9990458 -5.2973619 13.5340548)" class="st3" cx="307.096283" cy="128.0042419" rx="1.4131532" ry="1.7471712"/>
			<circle class="st12" cx="307.3804626" cy="127.371376" r="0.3757703"/>
		</g>
		<g>
			
				<ellipse transform="matrix(0.9990458 -0.0436733 0.0436733 0.9990458 -5.2735481 13.8969307)" class="st3" cx="315.4131165" cy="127.6406784" rx="1.4131532" ry="1.7471712"/>
			<circle class="st12" cx="315.6972656" cy="127.0078049" r="0.3757703"/>
		</g>
		<path class="st8" d="M312.6212158,131.3817749c0,0,1.7098694,0.5433502,1.3954163,1.7725372
			c-0.3643799,1.4242859-2.4010925,0.9986877-2.4010925,0.9986877"/>
		<circle class="st8" cx="306.9924011" cy="128.0621338" r="3.9171712"/>
		<circle class="st8" cx="316.6480408" cy="127.3860474" r="3.9171712"/>
		<path class="st8" d="M312.6529846,136.8504639c0,0-3.1182556,1.2549438-6.2905579-1.7532806"/>
	</g>
</g>
<g id="ORNAMENT_8">
	<g>
		<line class="st15" x1="190.8794556" y1="354.6741638" x2="190.8794556" y2="360.3405457"/>
		<line class="st15" x1="190.8794556" y1="366.388916" x2="190.8794556" y2="372.0552979"/>
		<line class="st15" x1="199.5700073" y1="363.3647461" x2="193.9036407" y2="363.3647461"/>
		<line class="st15" x1="187.8552551" y1="363.3647461" x2="182.1888885" y2="363.3647461"/>
	</g>
</g>
<g id="ORNAMENT_7">
	<g>
		<line class="st15" x1="532.4411011" y1="293.4359131" x2="532.4411011" y2="297.2550049"/>
		<line class="st15" x1="532.4411011" y1="301.3315735" x2="532.4411011" y2="305.1506653"/>
		<line class="st15" x1="538.2984619" y1="299.2932739" x2="534.4793701" y2="299.2932739"/>
		<line class="st15" x1="530.402832" y1="299.2932739" x2="526.5837402" y2="299.2932739"/>
	</g>
</g>
<g id="ORNAMENT_6">
	<g>
		<line class="st15" x1="510.4014282" y1="122.8471451" x2="510.4014282" y2="126.4361115"/>
		<line class="st15" x1="510.4014282" y1="130.2670288" x2="510.4014282" y2="133.8560028"/>
		<line class="st15" x1="515.9058228" y1="128.3515778" x2="512.3168945" y2="128.3515778"/>
		<line class="st15" x1="508.4859619" y1="128.3515778" x2="504.8970032" y2="128.3515778"/>
	</g>
</g>
<g id="ORNAMENT_5">
	<g>
		<line class="st15" x1="90.7263794" y1="131.7901459" x2="90.7263794" y2="135.3791046"/>
		<line class="st15" x1="90.7263794" y1="139.210022" x2="90.7263794" y2="142.798996"/>
		<line class="st15" x1="96.2308044" y1="137.2945709" x2="92.6418381" y2="137.2945709"/>
		<line class="st15" x1="88.8109207" y1="137.2945709" x2="85.2219467" y2="137.2945709"/>
	</g>
</g>
<g id="ORNAMENT_4">
	<g>
		<line class="st15" x1="68.4633942" y1="362.0436401" x2="68.4633942" y2="364.8768311"/>
		<line class="st15" x1="68.4633942" y1="367.9010315" x2="68.4633942" y2="370.7341919"/>
		<line class="st15" x1="72.8086777" y1="366.388916" x2="69.9754868" y2="366.388916"/>
		<line class="st15" x1="66.9513016" y1="366.388916" x2="64.1181183" y2="366.388916"/>
	</g>
</g>
<g id="ORNAMENT_3">
	<circle class="st15" cx="39.9485435" cy="269.4913025" r="4.4904432"/>
</g>
<g id="ORNAMENT_2">
	<circle class="st16" cx="417.0574646" cy="95.4875183" r="5.0002656"/>
</g>
<g id="ORNAMENT_1">
	<circle class="st16" cx="551.3272705" cy="212.7555389" r="3.9356763"/>
</g>
<g id="WOMAN_2_BACK_SHIRT">
	<path class="st2" d="M90.7263794,320.9002991c0,0,17.1873093,19.6767273,58.2355804,16.8392944
		s52.4926147-25.4423523,52.4926147-25.4423523l-9.9271545-45.9664917l-83.5624695,10.6321716L90.7263794,320.9002991z"/>
</g>
<g id="WOMAN_2_LEFT_LEG">
	<g>
		<g>
			<path class="st7" d="M172.5126953,475.5555115l-0.6620636,15.2275696c0,0-3.4049225,2.2699585-7.5664978,0l-1.1349792-16.3625488
				L172.5126953,475.5555115z"/>
			<g>
				<path class="st3" d="M158.6092529,504.118988c-0.4075317,3.9871216,0.0885925,8.9425354,1.229538,14.5892639l3.3103638-0.000061
					c0,0,1.5133057-8.9142761,3.2157593-12.8866882C168.0673828,501.8490906,160.2171631,500.6195984,158.6092529,504.118988z"/>
				<path class="st0" d="M163.1491547,488.5131226c0,0,3.5940857,1.7970581,9.8364563,0
					c0,0,10.2147675,17.2138062,13.7142792,20.3349915s11.1605988,6.5260925,13.8088684,7.9448547
					c2.6482697,1.4187012-17.5921173,2.4591064-22.3211823,1.6078491s-8.7014771-6.809845-12.6738892-10.0256042
					s-6.9044342-4.2561646-6.9044342-4.2561646S159.6496429,495.322998,163.1491547,488.5131226z"/>
			</g>
		</g>
		<g>
			<path class="st3" d="M187.9294434,271.9219971c0,0,6.1477814,32.2556458,5.2965546,45.5899048
				c-0.8512268,13.3342285-8.2285767,70.0830078-8.2285767,70.0830078l-9.3635406,89.379303
				c0,0-10.6403961,1.9862061-15.6059113-0.7093506c0,0-1.5605927-24.9694519-3.2630463-38.0216675
				c-1.7024689-13.0522156,0-25.5369568,1.134964-35.8936157c0,0-7.2354584-43.1290588-8.9379272-81.1507263
				s3.4049225-59.0187073,18.1596069-60.437439C181.8762512,259.3427124,187.9294434,271.9219971,187.9294434,271.9219971z"/>
			<path class="st17" d="M164.8516083,473.9476318c0,0-3.5940857-33.2926331-3.4049225-41.2374573
				s2.4591217-30.0768433,2.4591217-30.0768433l-6.0801086-82.8043518"/>
		</g>
	</g>
</g>
<g id="WOMAN_2_RIGHT_LEG">
	<g>
		<g>
			<path class="st7" d="M108.4645004,474.5987244l-1.7977219,16.3632202c0,0-3.4049301,2.2699585-7.5665054,0l0.000679-17.4981995
				L108.4645004,474.5987244z"/>
			<g>
				<path class="st3" d="M93.4253998,504.2978821c-0.4075394,3.9870911,0.0886002,8.9424744,1.2295303,14.5892639
					l3.3103714-0.000061c0,0,1.513298-8.9143066,3.2157593-12.8867188S95.0333023,500.7984619,93.4253998,504.2978821z"/>
				<path class="st0" d="M97.9653015,488.6920166c0,0,3.5940857,1.7970276,9.8364487,0
					c0,0,10.2147827,17.2137756,13.7142868,20.3349609c3.4995041,3.1211548,11.1605835,6.526123,13.8088684,7.9448242
					c2.6482697,1.4187012-17.5921173,2.4591064-22.3211823,1.6079102
					c-4.7290649-0.8512573-8.7014771-6.8098755-12.6738892-10.0256348
					c-3.9724197-3.2157593-6.9044342-4.2561646-6.9044342-4.2561646S94.4657898,495.5018616,97.9653015,488.6920166z"/>
			</g>
		</g>
		<g>
			<path class="st3" d="M156.4102325,288.7464905l-2.4827576,33.3868103c0,0-21.9901428,63.9373474-26.5300446,77.8407898
				s-14.5655212,73.9625549-14.5655212,73.9625549s-3.0265961,2.7857056-9.6472855,2.7857056
				s-8.1339951-3.164032-8.1339951-3.164032s-1.4187164-45.2098389,0-56.8433533
				c1.4187241-11.6334839,5.9586258-29.2256165,6.2423706-37.4541931
				c0.2837372-8.2285461-0.2837448-53.3438416,1.7024612-72.0709229s10.7822647-47.6083679,31.0699539-47.4967957
				S157.3968811,275.4786377,156.4102325,288.7464905z"/>
			<path class="st17" d="M112.8319092,290.0706482c0,0-4.3507385,56.3704224-4.3507385,67.15271
				c0,10.7822571-1.7024612,24.2127991-2.6482697,31.5901489c-0.945816,7.3773193-4.3507385,26.6719055-4.9182281,41.0482483
				c-0.5674896,14.3763733-0.945816,41.8049316-0.945816,41.8049316"/>
			<g>
				<path class="st17" d="M162.2979279,286.1928101l-1.5003052,26.7568054
					c-0.1289825,2.3002319-1.2048645,4.4443054-2.9719238,5.9225464l-3.8982239,3.2611389"/>
				<line class="st17" x1="156.4102325" y1="286.973114" x2="153.927475" y2="322.1333008"/>
			</g>
		</g>
	</g>
</g>
<g id="WOMAN_2_LEFT_ARM">
	<g>
		<path class="st0" d="M147.2454681,161.7542572c0,0,19.3486938-20.4124603,51.3872375-49.4220505l5.6219482,1.6622543
			c0,0,10.461441,8.4259796,11.0437775,13.2394943c0.5823517,4.8135147-27.8938446,36.858696-46.0894165,50.1493301
			C151.013443,190.6739044,147.2454681,161.7542572,147.2454681,161.7542572z"/>
		<path class="st3" d="M196.330719,111.0085068c0,0,0.88591,11.9525223,12.5611572,18.4202805
			c8.6083527,4.7687836,14.1381378,0.9527283,14.1381378,0.9527283l1.9984589-7.9191895
			c0,0-4.343277-9.0490875-11.5479279-14.6265793c-7.2046509-5.5774841-13.5841217-6.0363159-13.5841217-6.0363159
			L196.330719,111.0085068z"/>
		<g>
			<path class="st7" d="M235.1083679,52.8069382l-6.1199951,17.5599976c-0.4700317,1.3599854-1.3000488,2.5700073-2.4000244,3.5
				l-2.1900024,0.9799805c-0.9400024,2.3400269-7.0299683,45.3400269-7.0299683,45.3400269
				c-9.6300049-4.2000122-15.1700439-14.6700439-15.1700439-14.6700439l10.3500366-24.3699951l2.9400024-7.3900146
				l-2.3900146-2.7099609c-1.2800293-1.460022-1.9799805-3.3400269-1.960022-5.2900391l0.1000366-8.2199707
				c0.0100098-0.8200073,0.5899658-1.5200195,1.3899536-1.6799927c0.960022-0.1900024,1.8800049,0.4500122,2.0400391,1.4099731
				l0.8699951,5.1700439l4.0299683-16.1300049c0.1500244-0.6000366,0.6900024-1.0200195,1.3000488-1.0200195
				c0.0799561,0,0.1499634,0.0100098,0.2299805,0.0200195c0.710022,0.1300049,1.2000122,0.789978,1.0899658,1.5099487
				l-1.3099976,9.2600098l3.0900269-10.1599731c0.1900024-0.6400146,0.7800293-1.0700073,1.4299927-1.0700073
				c0.0499878,0,0.1099854,0,0.1600342,0.0100098c0.8599854,0.0899658,1.4699707,0.8699951,1.3399658,1.7199707l-1.539978,10.5
				l3.7099609-8.9499512c0.2200317-0.5300293,0.7300415-0.8600464,1.2800293-0.8600464
				c0.1300049,0,0.2600098,0.0200195,0.3900146,0.0599976c0.7199707,0.210022,1.1499634,0.960022,0.9599609,1.6799927
				l-2.539978,9.7600098l3.3200073-7.039978c0.2399902-0.5100098,0.75-0.8099976,1.289978-0.8099976
				c0.1900024,0,0.3900146,0.039978,0.5800171,0.1199951C235.0183411,51.3369064,235.3483582,52.106926,235.1083679,52.8069382z"/>
		</g>
		<g>
			<path class="st8" d="M215.8948975,63.560936c0,0,5.47789,1.6323471,5.0202637,8.2653046"/>
			<path class="st8" d="M229.1836243,61.3252525c0,0-5.0001373-2.6461678-9.7441101-3.7696686"/>
		</g>
	</g>
</g>
<g id="WOMAN_2_HAIR">
	<g>
		<path class="st3" d="M142.8644867,113.9840012c0,0-1.4791565-8.7600021-7.181427-12.328743
			c-5.7022858-3.5687408-11.900383,1.5027771-15.2313156,8.9978714
			c-3.3309326,7.4951019,0.3143234,15.9498138,11.3017044,11.3555832
			C140.3852539,118.399437,142.8644867,113.9840012,142.8644867,113.9840012z"/>
		<path class="st3" d="M141.2015381,113.5927277c0,0-11.6710052,2.1740265-13.5295639,11.5648117
			s11.6474838,21.5373611,21.8140793,19.1727676c10.1665955-2.3646088,10.4650879-10.3977051,10.4650879-10.3977051
			s7.7075958,1.7590485,10.1884918-5.4155884c2.4809113-7.1746521-0.8129578-9.662323-4.8995056-10.16996
			c0,0,4.3327484-8.5121002-3.7020416-12.0184326C153.5032806,102.8222885,145.7822113,105.2357941,141.2015381,113.5927277z"/>
		<path class="st17" d="M141.2015381,113.5927277c-0.0041962,0.0007782-8.5798645,1.5996094-12.1976776,7.9721909"/>
	</g>
</g>
<g id="WOMAN_2_BODY">
	<g>
		<g>
			<g>
				<path class="st2" d="M148.9619598,155.2450256l-20.7133026,18.0177307c0,0-21.2807846,105.2689514-20.4295502,105.2689514
					c0.8512268,0,28.5635376,8.7960815,53.722168,3.9724121c25.1586151-4.8236389,29.6985168-11.3497314,29.6985168-11.3497314
					l-12.2009888-68.098526l-1.6518097-34.9012909c-0.310318-6.5565338-5.5521851-11.8037415-12.1083984-12.120697
					L148.9619598,155.2450256z"/>
				<path class="st18" d="M107.8191071,278.5317078c0.8512268,0,28.5635376,8.7960815,53.722168,3.9724121
					c25.1586151-4.8236389,29.6985168-11.3497314,29.6985168-11.3497314"/>
				<path class="st18" d="M120.0200882,276.4509277c0,0,40.6699448,3.9724121,66.9635391-7.9448242"/>
			</g>
			<path class="st0" d="M148.9619598,238.240097c-2.4628754,42.9360809-18.7270966,78.3133087-18.7270966,78.3133087
				c-16.0825806,9.0798035-39.5084839,4.3468933-39.5084839,4.3468933s15.2994461-61.663147,19.0789337-86.6326141
				s6.6736603-61.8561554,6.6736603-61.8561554s15.6740112-13.7445374,26.8308258-17.9666748
				c-0.5107422,5.3003082-2.3948517,27.2393951-0.4993896,42.9361267
				C144.9895477,215.3475952,148.9619598,238.240097,148.9619598,238.240097z"/>
			<g>
				<path class="st0" d="M153.927475,154.4448547c0,0,2.0968933-1.1074066,5.7092133-2.7145538
					c8.6527252-3.8496857,18.4090118,2.4615173,18.4090118,11.9319916v10.1679535c0,0,5.9586182,19.8620758,6.2423706,23.4088593
					c0.2837372,3.5467987-2.6955719,15.8896637-2.6955719,15.8896637s17.8758698,69.091629,19.8620758,99.1684723
					c0,0-10.6403961-0.5675049-21.7064056-3.2630615c0,0,0.047287-25.773407-0.8985291-44.8788147
					c-0.9458008-19.105423-3.9724121-31.9684753-3.9724121-31.9684753s-10.7822571-45.0206757-13.3359528-54.4788055
					S153.927475,154.4448547,153.927475,154.4448547z"/>
				<path class="st9" d="M187.7451019,238.2373047c-3.4343262-14.6022034-6.1526031-25.1085358-6.1526031-25.1085358
					s2.9793091-12.342865,2.6955719-15.8896637c-0.2837524-3.5467834-6.2423706-23.4088593-6.2423706-23.4088593
					l0.2651215-9.5437927c0.1404266-5.0557556-2.7418365-9.7099457-7.3305054-11.8370514l-3.4739227-1.6103363"/>
			</g>
			<g>
				<path class="st0" d="M146.8811798,150.7524109c-5.7176514,0.8949432-10.6876984,13.6197052-12.8157654,24.8748779
					l6.4078827,5.8640442l-6.4078827,11.3497467c0,0,9.5999908,24.0236511,14.8965454,45.3990173
					c0,0-2.4591064-34.8059082-4.1615753-54.0059052c0.3310394-19.7201996,9.4108429-20.4381256,16.7408905-1.8916321
					c7.0935974,20.5241394,13.3359528,49.8443298,13.3359528,49.8443298s0.7566528-29.3201904-0.7566528-45.1152649
					l-9.4581146-7.2827606l2.8374329-7.3773346C167.4998932,172.4115295,157.7580261,149.0499573,146.8811798,150.7524109z"/>
				<path class="st9" d="M174.7665253,225.5859375c0,0,0.8673553-22.7192383-0.6459503-38.5143127l-9.4581146-7.2827606
					l2.8374329-7.3773346c0,0-3.3001556-7.9139862-8.2034607-14.1938934"/>
				<path class="st9" d="M140.1219482,157.3467865c-2.6883392,4.9114227-4.8381958,11.8368073-6.0565338,18.2805023
					l6.4078827,5.8640442l-6.4078827,11.3497467c0,0,7.3294983,18.3418274,12.7132111,37.2320404"/>
			</g>
		</g>
		<g>
			<path class="st7" d="M161.5375061,182.3425598c-1.4187164,5.1981354-5.4819489,7.4680939-5.4819489,7.4680939
				c-6.0494385-0.4653168-11.2589417-5.5727081-11.2589417-5.5727081v-19.9642487
				c-0.0680847-5.4364929-1.3279724-18.5227356-1.8046417-23.2896423c-0.1134644-1.1123199-0.1815643-1.7705536-0.1815643-1.7705536
				l9.3635559,1.9975586c0,0,0.2042847,4.4150085,0.5901337,9.3294678
				c0.3745575,4.6761017,0.9420471,9.8175659,1.6798096,12.0307159
				C155.9647369,167.111145,161.5375061,182.3425598,161.5375061,182.3425598z"/>
			<path class="st3" d="M152.7640991,150.5405273c-5.3911285-1.6683807-8.273941-6.0267181-9.7721252-9.5564728
				c-0.1134644-1.1123199-0.1815643-1.7705536-0.1815643-1.7705536l9.3635559,1.9975586
				C152.1739655,141.2110596,152.3782501,145.6260681,152.7640991,150.5405273z"/>
		</g>
	</g>
</g>
<g id="WOMAN_2_HEAD">
	<g>
		<path class="st7" d="M161.0507355,125.0410385c0,0,1.8738098,7.5456772-0.5767365,15.7744217
			c-2.4505463,8.2287598-9.2119751,7.0009613-14.8569336,2.1082611c-5.6449432-4.8927002-6.6451111-15.585495-6.6451111-15.585495
			s-0.3373566-9.0602188,6.3329926-10.9947281C151.975296,114.4089813,158.9998474,117.8107529,161.0507355,125.0410385z"/>
		<path class="st3" d="M145.2813568,119.1701736c0,0,6.4663086,9.7095261,18.7293091,8.6975327
			c0,0-3.0932312-17.5638504-18.144104-14.3998032c-15.0508728,3.1640549-12.3118439,15.3916245-5.9568634,19.2470779
			C139.9096985,132.7149811,145.1346588,129.4902496,145.2813568,119.1701736z"/>
		<g>
			<g>
				<path class="st7" d="M143.2440643,137.6026306l-1.7023315-5.6252441c0,0-2.3791962-4.1545563-6.2155609-3.2134399
					S131.9542084,139.751358,143.2440643,137.6026306z"/>
				<path class="st18" d="M135.6688385,131.0756531c0,0,3.7973022,0.8238831,6.0319977,4.1607361"/>
				<path class="st18" d="M137.3996887,135.274353c0,0,0.1385803-1.5184021,0.934906-3.1071167"/>
			</g>
			<path class="st19" d="M140.2509613,136.3315277c1.4530945,0.4722595,1.9831848,2.8485565,1.1839905,5.3076172
				c-0.7991791,2.4590607-2.6250153,4.0697021-4.0780945,3.5974579s-1.9831696-2.8485413-1.1839905-5.3076172
				c0.3083801-0.9488678,0.7696228-1.7714081,1.3033142-2.396698"/>
		</g>
	</g>
</g>
<g id="WOMAN_2_FACE">
	<g>
		<path class="st3" d="M145.8495483,127.9201508c0,0,1.6851807-3.4307938,4.2883301-2.130722
			c0,0,0.0682068-0.7784424,0.7483368-0.7975922c0.68013-0.0191422,0.7540131,2.1086426,0.7540131,2.1086426
			S148.518158,126.8520355,145.8495483,127.9201508z"/>
		<path class="st3" d="M160.4694519,129.5107269c0,0-0.2193604-3.4887772-2.2311707-2.5154495
			c0,0-0.0533905-0.6439819-0.4907227-0.7154312c-0.7563934-0.1235886-0.9053802,1.8807373-0.9053802,1.8807373
			S159.0156555,128.1939392,160.4694519,129.5107269z"/>
		<g>
			
				<ellipse transform="matrix(0.0285071 -0.9995936 0.9995936 0.0285071 13.3786564 277.6690979)" class="st3" cx="149.5397186" cy="131.9517365" rx="1.7742779" ry="1.4350778"/>
			<circle class="st12" cx="149.8739014" cy="131.3315277" r="0.3816002"/>
		</g>
		<g>
			
				<ellipse transform="matrix(0.0285071 -0.9995936 0.9995936 0.0285071 21.3473358 286.3502808)" class="st3" cx="157.9901886" cy="132.1927338" rx="1.7742779" ry="1.4350778"/>
			<circle class="st12" cx="158.3243713" cy="131.572525" r="0.3816002"/>
		</g>
		<path class="st18" d="M154.2661438,131.7169189l-0.0726318,3.4696198c0,0,2.4820557,0.0906067,1.887085,1.4891663
			c-0.5844574,1.3738251-2.5051727,0.8356628-2.5051727,0.8356628"/>
		<path class="st18" d="M154.5198975,141.3188477c0,0-3.2503052,1.0426636-6.2430878-2.2366638"/>
	</g>
</g>
<g id="GROUND">
	<g>
		<g>
			<line class="st15" x1="426.3935547" y1="518.887146" x2="531.9750977" y2="518.887146"/>
			<line class="st15" x1="69.9615707" y1="518.887146" x2="401.0540771" y2="518.887146"/>
		</g>
		<g>
			<line class="st15" x1="174.8763123" y1="537.0200806" x2="122.1141434" y2="537.0200806"/>
			<line class="st15" x1="494.9966736" y1="537.0200806" x2="192.0560455" y2="537.0200806"/>
		</g>
		<g>
			<line class="st15" x1="347.8941345" y1="555.1530762" x2="383.6522522" y2="555.1530762"/>
			<line class="st15" x1="175.2883606" y1="555.1530762" x2="336.0932312" y2="555.1530762"/>
		</g>
	</g>
</g>
<g id="WELCOME_BANNER">
	<g>
		<path class="st16" d="M132.5919189,235.8851471c-5.7029724,6.6534729-30.142746,198.4784088-30.142746,198.4784088
			s17.1089096,2.8515015,19.9603958,2.8515015s5.2277222-9.5049438,10.930687-10.4554443
			c5.7029724-0.9505005,19.009903,9.0296936,20.4356537,10.4554443v-4.7524719c0,0,97.9009857,26.6138611,161.1089172,26.6138611
			s163.0098877-24.2376404,163.0098877-24.2376404v-5.7029724c0,0,9.0296936-0.95047,18.534668,8.0792236
			c9.5049438,9.0296936,23.7623901,16.633667,34.6930542,17.1089172c0,0-32.3224182-214.6588287-34.2233887-220.8370361
			l-10.0623779-5.6214752c0,0-83.8132324,26.3792877-178.4963989,26.3792877s-166.4455566-23.2871246-166.4455566-23.2871246
			L132.5919189,235.8851471z"/>
		<g>
			<path class="st20" d="M148.2768097,259.2391968c0,0,54.2798157,37.5187988,111.985672,48.7446594"/>
			<path class="st20" d="M467.2383423,254.7401123c0,0-47.8509521,30.9043274-94.9961243,35.3305359"/>
			<line class="st20" x1="481.2671814" y1="262.0141296" x2="478.6620178" y2="412.8334656"/>
			<path class="st20" d="M468.3816833,284.1522827c0,0-46.4500732,115.3742676-128.1346741,139.6118774"/>
			<path class="st20" d="M160.4694519,318.8721619c0,0,59.9529724,95.3870544,137.0031738,95.8623047
				c0,0,45.1690063-2.5124817,76.3250732-33.8658142"/>
			<line class="st20" x1="150.7821808" y1="314.8082275" x2="153.5018616" y2="417.5859375"/>
			<line class="st20" x1="144.1134033" y1="272.7963257" x2="125.4962616" y2="421.3879089"/>
		</g>
		<g>
			<g>
				<path class="st21" d="M247.4706268,363.8724976c-7.0083008-0.4536743-14.0235443-1.2015686-21.0482788-2.4567261
					c0.1724701-4.3111267,0.348526-8.7514038,0.5296173-13.3674011c6.2543488,1.3526917,12.5017395,2.2383728,18.7434387,2.7706299
					c0.0765839-2.3212891,0.1546021-4.7167053,0.2327118-7.1897583c-6.2269287-0.5372925-12.4595642-1.4179688-18.6987152-2.7146912
					c0.1625061-4.2214661,0.3286438-8.5968018,0.4976654-13.1511841c6.578949,1.0309753,13.1501617,1.826355,19.7158356,2.35672
					c0.0811462-2.7665405,0.1628723-5.6123047,0.2457123-8.5353699c-9.5429077-0.7740479-19.0971985-1.894989-28.6675873-2.9170532
					c-0.7263947,17.0974426-1.3973846,32.0808411-2.0104065,47.85672
					c10.1005554,1.8117981,20.1795044,2.6546936,30.2445831,3.2318115
					C247.3262329,367.8718567,247.3979797,365.9104309,247.4706268,363.8724976z"/>
				<path class="st21" d="M284.1222229,364.8677979c-6.8211365-0.150116-13.6392517-0.3872986-20.4537964-0.7936707
					c0.9380188-11.7157898,2.0072632-25.6559448,3.1941833-41.5360413
					c-2.9807434-0.2741699-5.9601135-0.5797424-8.9388428-0.9173584c-1.479187,19.2476196-2.7622833,35.2612-3.8369751,47.7791748
					c9.8513794,0.9125061,19.7001648,1.6499939,29.5480042,2.3178406
					C283.7957153,369.4655151,283.9580688,367.1811523,284.1222229,364.8677979z"/>
				<path class="st21" d="M312.34198,373.3448486c5.9959106,0.0052795,10.744812-1.3452454,12.8984375-2.6810608
					c-0.473938-2.7214966-0.9467773-5.3666382-1.4187012-7.9416199c-2.371582,1.332428-6.2215576,2.3166809-9.9147339,2.4795532
					c-10.938385,0.344574-17.250824-6.2060242-17.0624695-16.6932068
					c0.2082825-11.6643066,7.5462952-18.1816406,17.5430908-18.6813965
					c4.0898743-0.2427673,7.2958679,0.3416443,9.6259155,1.0978699c0.677887-2.1356506,1.3539734-4.1999817,2.0274658-6.1857605
					c-1.8174133-0.7103882-6.0346375-1.6015015-11.9341736-1.4612427
					c-14.9822388-0.0489807-26.4067383,10.3426208-26.7495117,26.4467163
					C287.0470581,364.0125732,296.4899292,372.8463745,312.34198,373.3448486z"/>
				<path class="st21" d="M352.7247314,372.1611328c13.8045349-1.3504333,23.9491272-10.6890564,23.7996521-26.4568176
					c-0.1286926-14.3980713-8.7357483-24.5262451-23.0901184-23.6547852
					c-13.8420715,0.3015747-23.377533,8.5357056-23.5005188,23.6570435
					C329.8222656,359.909668,338.6239624,372.8429565,352.7247314,372.1611328z M353.2304077,327.9146118
					c8.9884949-0.1842041,13.6639099,7.835022,13.7151184,17.0827332
					c0.0572815,10.0553589-4.8830872,18.4720459-13.6950073,18.78479c-8.7385559,0.2370911-13.8013-8.8656311-13.7571411-18.7684021
					C339.5389709,334.9169617,344.3142395,328.0114441,353.2304077,327.9146118z"/>
			</g>
			<path class="st2" d="M182.8900604,359.1731567c3.2928162,0.4779968,6.5877991,0.9394226,9.884491,1.3832703
				c0.1789398-0.4105835,0.3536987-0.8223877,0.5323334-1.2330933c-4.1345367-4.2792664-7.9597778-8.5131226-11.4459076-12.5736694
				C182.1927643,350.8904419,182.5343628,355.0315247,182.8900604,359.1731567z"/>
			<path class="st2" d="M164.6877441,325.1193237c-0.2392578-4.645813-0.4901123-9.2922974-0.7003784-13.9365845
				c-2.9189453-0.4782715-5.8358765-0.973938-8.7514038-1.480896l5.2334595,9.1702881
				C160.4694214,318.8721313,161.9301147,321.1960449,164.6877441,325.1193237z"/>
			<path class="st2" d="M205.7564087,317.0411377c-2.5053711,7.0117188-5.050293,14.0136719-7.6342773,21.0058594
				c-2.0239258,5.6474609-3.8842773,10.9511719-5.4355469,16.078125l-0.1489258-0.0185547
				c-0.090332-5.2617188-0.4472656-10.7021484-0.9545898-16.5234375
				c-0.6831055-7.5234375-1.3266602-15.0458984-1.9316406-22.5673828c-3.0615234-0.4130859-6.121582-0.8417969-9.1801758-1.2851562
				c-2.7729492,6.9277344-5.5869141,13.8447266-8.4414062,20.75c-0.0516968,0.1307373-0.1029663,0.2587891-0.1546021,0.3891602
				c1.5286255,1.9860229,3.194458,4.100647,5.00177,6.3251343c0.293396-0.7062378,0.5917358-1.4111328,0.8842773-2.1176147
				c2.2456055-5.2285156,3.8374023-9.6875,5.4165039-14.6533203l0.1435547,0.0205078
				c-0.1479492,5.2392578,0.0888672,9.8837891,0.5839844,15.4980469c0.3154907,3.5685425,0.6420288,7.1373901,0.9753418,10.7063599
				c3.5393066,4.0142822,7.4199829,8.1973877,11.6105347,12.421814
				c6.2723389-14.9564209,12.336853-29.9680176,18.1841431-45.0324707
				C211.7012329,317.7208252,208.7280884,317.3887939,205.7564087,317.0411377z"/>
			<path class="st2" d="M162.8677368,346.4268799l-0.1471405-0.0253601
				c-0.018631-4.8512573-0.1648407-11.1007996-0.4044647-17.079071c-0.1172638-2.7896423-0.2032318-5.5771484-0.3100586-8.3660889
				c-2.705719-3.959259-3.8622437-6.4283447-3.8622437-6.4283447l-4.9827881-9.0441589
				c-0.1795044-0.0336609-0.762207-0.1328735-0.9417114-0.1665955c0.9250183,16.4862671,2.0588531,32.9860229,3.4015961,49.4943848
				c3.3061523,0.5777893,6.6144867,1.138031,9.9254913,1.6806946c2.8503418-6.4221191,5.6589203-12.8573608,8.4361115-19.3012695
				c-1.7778473-2.2480774-3.4156799-4.3844604-4.9180145-6.3904419
				C166.755722,336.4120483,164.4857788,341.6781311,162.8677368,346.4268799z"/>
			<path class="st2" d="M391.6069946,367.9571533c-0.0700073-2.803833-0.1463623-5.6079102-0.2189331-8.4119873
				c-2.5549927,3.508667-4.9017334,6.4979248-6.9563599,8.9793091
				C386.8237305,368.3425903,389.2155151,368.1570435,391.6069946,367.9571533z"/>
			<path class="st2" d="M401.3977051,339.7884521c-2.7666016-6.2050781-5.4902344-12.4228516-8.1699219-18.6523438
				c-3.8583984,0.3505859-7.7197266,0.6767578-11.5810547,0.9785156
				c0.1738281,16.0664062,0.2910156,32.1347656,0.3515625,48.2060547c0.4944458-0.0368042,0.9885254-0.0796509,1.4829102-0.1172485
				c2.0546265-2.4813843,4.4013672-5.4706421,6.9563599-8.9793091c-0.0944824-3.6505127-0.1860962-7.3010254-0.2849731-10.9512939
				c-0.1855469-6.5722656-0.5429688-14.2050781-0.8642578-20.4794922l0.1455078-0.0117188
				c1.8095703,5.8603516,4.1308594,12.2460938,6.6025391,18.1826172c0.4448242,1.0408325,0.8986816,2.0794678,1.3458862,3.119751
				c1.6921387-2.6240234,3.4295044-5.437561,5.1946411-8.4404297
				C402.1871338,341.6911011,401.7990112,340.7380371,401.3977051,339.7884521z"/>
			<path class="st2" d="M427.9321899,315.756958c-3.7998047,0.4882812-7.6015625,0.9521484-11.4052734,1.3925781
				c-1.4736328,6.6347656-2.9931641,13.2675781-4.5605469,19.8974609
				c-1.2880859,5.8095703-2.3642578,11.8769531-3.1660156,17.1962891l-0.2236328,0.0234375
				c-1.4928589-4.2883301-3.2063599-8.798645-5.0493164-13.302124c-1.7651367,3.0028687-3.5025024,5.8164062-5.1946411,8.4404297
				c2.3971558,5.5761108,4.8209839,11.145813,7.2859497,16.7044678c2.3798828-0.234375,4.7587891-0.4775391,7.1367188-0.7294922
				c1.7216797-7.1660156,3.3896484-14.3359375,5.0029297-21.5097656c1.5185547-6.2773438,2.7929688-12.9667969,3.6767578-18.9648438
				l0.2158203-0.0263672c0.7041016,6.4560547,1.9609375,13.8505859,3.0019531,19.9785156
				c0.6602783,3.8589478,1.3276978,7.7166138,1.9925537,11.574585c2.4905396-3.3094482,4.8717651-6.6177368,7.1489868-9.9006958
				C431.8223877,336.2761841,429.8632812,326.0187988,427.9321899,315.756958z"/>
			<path class="st2" d="M428.0541077,354.0102539c0.4571838,2.59375,0.9104614,5.1879883,1.3700256,7.7815857
				c3.0005493-0.377594,5.9990845-0.7688904,8.996582-1.1757812c-1.0937805-5.5097961-2.1736755-11.0217896-3.2553101-16.5335999
				C432.9006958,347.374054,430.5320435,350.6913757,428.0541077,354.0102539z"/>
			<path class="st2" d="M469.9422607,314.3152771c-0.4191284-2.3656006-0.8382874-4.7312317-1.2574463-7.0968323
				c-4.1425476,0.7341919-8.2902222,1.4294434-12.4401245,2.1059875c-1.3634949,2.5547791-2.8323364,5.2332153-4.3994446,8.006958
				C457.8843079,316.3846741,463.9176025,315.3829041,469.9422607,314.3152771z"/>
			<path class="st2" d="M450.5758057,319.8439331c1.5776367-2.7677612,3.0566406-5.4406128,4.4298096-7.9901733
				c-5.1270752,0.8158569-10.2580566,1.5977173-15.3947144,2.3250732c0.9154053,6.4633179,1.8309326,12.9263306,2.746521,19.3895874
				c2.6246338-4.1738892,5.0578613-8.2330933,7.2971191-12.1171265
				C449.5823975,320.9750366,450.1964111,319.9019165,450.5758057,319.8439331z"/>
			<path class="st2" d="M478.196106,354.3760071c-0.4220581-2.3656006-0.8441467-4.7302246-1.2662354-7.0948486
				c-7.0060425,1.2502441-14.0231018,2.4204712-21.0492859,3.5126343
				c-0.7227783-4.6535645-1.4465027-9.3070984-2.1702576-13.9606323c6.1907349-0.9620056,12.3743896-1.9874573,18.5490112-3.0734253
				c-0.4122314-2.3431702-0.8244629-4.6853638-1.2366943-7.0275879c-6.1277771,1.0789795-12.2645874,2.095459-18.4074707,3.0504456
				c-0.5617065-3.6134338-1.1233521-7.2269287-1.6850586-10.8403625c-2.2244873,3.8925171-4.6422729,7.9609375-7.2510376,12.1447754
				c1.3687134,9.404541,2.7374573,18.8092041,4.105835,28.2131958
				C457.9414673,357.8221436,468.0798645,356.1810608,478.196106,354.3760071z"/>
		</g>
	</g>
</g>
<g id="WOMAN_2_RIGHT_ARM">
	<g>
		<g>
			<g>
				<path class="st0" d="M116.4789734,172.4115295c8.0250015,2.0579224,19.6703796,15.2007141,15.1598511,32.1085968
					c-4.0341339,15.1220856-18.1598892,48.0417938-22.9814758,51.4878082
					c-4.8215942,3.4460144-13.1748886-0.8530731-13.1748886-0.8530731l0.0889435-23.7412415
					c0,0,9.4968033-35.0546417,13.7849197-46.5214386C113.6444473,173.4253693,116.4789734,172.4115295,116.4789734,172.4115295z"/>
				<path class="st9" d="M131.3991394,205.3972931c-4.3256607,15.4801025-18.0114365,47.2298279-22.7417908,50.6106415
					c-4.8215942,3.4460144-13.1748886-0.8530731-13.1748886-0.8530731"/>
			</g>
			<path class="st3" d="M99.8812027,227.7890778c-13.9785614-0.3417358-17.5180359,16.4987335-9.5690994,28.4922638
				c7.9489288,11.9935608,28.0611725,3.4447021,28.4302063-9.8098907
				C119.1113358,233.2168579,111.8342667,228.0812988,99.8812027,227.7890778z"/>
		</g>
		<g>
			<path class="st7" d="M129.2290802,238.6674805c-1.6184464,3.5396271-3.8883133,9.1708221-5.1958313,12.4488831
				L109.7812042,237.1138c0,0-8.9936371-8.0488281-15.4179077,2.7269287
				c-6.4242935,10.7758331,3.5659103,16.4535522,3.5659103,16.4535522s11.9483566,3.7638245,22.2688141,6.4471436
				l0.0040741-0.013092c4.8485489,1.2373962,9.7171707,2.1799316,10.8267288,1.7941284
				c2.9285889-1.0238037,4.5980225-9.193573,4.5980225-9.193573s4.9374847-1.2586212,9.8952332-1.0626526
				c4.9618073,0.1828766,5.8838806-3.1004639,1.5233154-3.9707947c0,0,3.5459747-0.2436676,3.9540863-2.152832
				c0.3714294-1.7913971-3.1793213-2.2232056-3.5917969-2.2799835c0.3927917-0.0641022,3.3961487-0.5913849,3.4378357-2.198761
				c0.053894-1.6466217-4.276886-2.1061401-4.7065277-2.1539001c0.3062592-0.0624237,3.0351562-0.6751862,2.9037018-2.2791443
				c-0.1503601-1.6815338-11.0901337-2.1916504-16.3472443,0.4157257c0,0,1.7010498-2.6536713,3.1091614-5.0113678
				C137.2127686,232.2775879,131.6364594,233.423233,129.2290802,238.6674805z"/>
			<path class="st18" d="M145.6156921,250.3113251c0,0-6.3153229-0.6462708-9.4443054-0.1725159"/>
			<path class="st18" d="M145.7480011,245.7951813c0,0-6.2894287-0.4678497-9.3916626,0.0568237"/>
			<path class="st18" d="M145.1848755,241.5735626c0,0-6.0428772,0.1200562-9.2297516,0.9165039"/>
		</g>
	</g>
</g>
<g id="WOMAN_1_LEFT_HAND">
	<g>
		<path class="st7" d="M505.1054077,248.6717224c2.8279419-2.8976898-3.1208191-12.5676575-5.2751465-14.970459
			c-0.1431274-0.159668-0.2690735-0.3365326-0.3833008-0.5241089c-0.62146-0.6692657-1.224823-1.3126831-1.7711182-1.8787384
			c-4.5418091-4.6919708-10.924408-3.8175049-8.53479-1.8307648c2.3896179,1.9868469,5.2032471,4.1794434,5.2032471,4.1794434
			c-6.5917053-0.8058167-18.0762634,3.8530884-17.6042786,5.7044373c0.4629211,1.7613831,3.6060486,1.3890228,3.9563599,1.3404999
			c-0.4405518,0.2126007-4.8901062,2.3317871-4.2132874,4.0690613c0.6489563,1.6999207,4.0529175,1.1331329,4.4962158,1.0538177
			c-0.4188843,0.2157135-4.0462952,2.0120392-2.9761353,3.7843475c1.153595,1.8842468,5.0299988,0.8106689,5.0299988,0.8106689
			c-4.3268433,2.5689697-2.1077881,5.7265472,3.1192932,3.6652679c5.217865-2.0737762,10.9611206-2.5873871,10.9611206-2.5873871
			S502.2774048,251.5694427,505.1054077,248.6717224z"/>
		<path class="st18" d="M484.5651245,249.8892212c0,0,6.4974976-3.0649719,10.0153198-3.7361145"/>
		<path class="st18" d="M482.7254028,245.1187439c0,0,6.5369568-2.8647766,10.0453796-3.4715118"/>
		<path class="st18" d="M481.7387085,240.4010925c0,0,6.4949036-2.144577,10.1958923-2.4930573"/>
	</g>
</g>
</svg>
